# xmcd
#
# Track frame offsets:
#	150
#	17292
#	35495
#	51917
#	72947
#	91850
#	114047
#	132070
#	151982
#	172720
#	194770
#	213655
#	234722
#
# Disc length: 3371 seconds
# Revision: 5
# Processed by: cddbd v1.5.2PL0 Copyright (c) Steve Scherf et al.
# Submitted via: dBpowerAMP V12.0
#
DISCID=a30d290d
DTITLE=Various Artist - Mañana
DYEAR=2005
DGENRE=Latin Pop, Balada
TTITLE0=Sin Bandera - Qué Me Alcance La Vida
TTITLE1=Sin Bandera - No Voy
TTITLE2=Sin Bandera - A Tí
TTITLE3=Sin Bandera - Tócame
TTITLE4=Sin Bandera Feat. Vico C - Junto A Tí
TTITLE5=Sin Bandera Feat. Yung Kuntry - Lo Que Llamas Amor
TTITLE6=Sin Bandera - Suelta Mi Mano
TTITLE7=Sin Bandera - Cómo Voy A Odiarte
TTITLE8=Sin Bandera Feat. Laura Pausini - Como Tú Y Como Yo
TTITLE9=Sin Bandera Feat. Yung Kuntry - No, No
TTITLE10=Sin Bandera Feat. Brian McKnight - La Razón Eres Tú (Look What You Make Me Do)
TTITLE11=Sin Bandera - Cuando Ya No Te Esperaba
TTITLE12=Sin Bandera Feat. Vico C - Junto A Tí (Urban Version)
EXTD=
EXTT0=
EXTT1=
EXTT2=
EXTT3=
EXTT4=
EXTT5=
EXTT6=
EXTT7=
EXTT8=
EXTT9=
EXTT10=
EXTT11=
EXTT12=
PLAYORDER=
